<?xml version="1.0" encoding="UTF-8" standalone="no"?>
<svg
   xmlns:dc="http://purl.org/dc/elements/1.1/"
   xmlns:cc="http://creativecommons.org/ns#"
   xmlns:rdf="http://www.w3.org/1999/02/22-rdf-syntax-ns#"
   xmlns:svg="http://www.w3.org/2000/svg"
   xmlns="http://www.w3.org/2000/svg"
   xmlns:sodipodi="http://sodipodi.sourceforge.net/DTD/sodipodi-0.dtd"
   xmlns:inkscape="http://www.inkscape.org/namespaces/inkscape"
   version="1.1"
   id="svg2"
   xml:space="preserve"
   width="3900"
   height="1500"
   viewBox="250 600 3800 1550"
   sodipodi:docname="5514.eps"><metadata
     id="metadata8"><rdf:RDF><cc:Work
         rdf:about=""><dc:format>image/svg+xml</dc:format><dc:type
           rdf:resource="http://purl.org/dc/dcmitype/StillImage" /></cc:Work></rdf:RDF></metadata><defs
     id="defs6"><clipPath
       clipPathUnits="userSpaceOnUse"
       id="clipPath280"><path
         d="m 16439,8432.7 h -5671.1 l -642.3,2321.2 -49.2,177.9 -42,151.8 -98.58,356 h 5589.48 l 108.1,-356 46.1,-151.8 54.2,-177.9 705.3,-2321.2"
         id="path278" /></clipPath></defs><sodipodi:namedview
     pagecolor="#ffffff"
     bordercolor="#666666"
     borderopacity="1"
     objecttolerance="10"
     gridtolerance="10"
     guidetolerance="10"
     inkscape:pageopacity="0"
     inkscape:pageshadow="2"
     inkscape:window-width="640"
     inkscape:window-height="480"
     id="namedview4" /><g
     id="g10"
     inkscape:groupmode="layer"
     inkscape:label="ink_ext_XXXXXX"
     transform="matrix(1.3333333,0,0,-1.3333333,0,2666.6667)"><g
       id="g12"
       transform="scale(0.1)"><path
         d="M 0,0 H 32000 V 20000 H 0 Z"
         style="fill:#ffffff;fill-opacity:1;fill-rule:nonzero;stroke:none"
         id="path14" /><path
         d="m 26556.6,4211.3 c 0,0 2978.9,3115.4 503.8,6488.4 -2196.2,2992.7 -4756.6,2788.2 -6635.2,1573.7 -800.1,-517.3 -3695.9,-2867.4 -5659.3,177.8 C 12088.4,16604 3396.25,16889 5088.5,10499.7 5907.43,7407.8 1810.39,7295.4 3497.61,4204.7 l 23058.99,6.6"
         style="fill:#ebf3fa;fill-opacity:1;fill-rule:nonzero;stroke:none"
         id="path16" /><path
         d="m 6738.13,8403.9 c 0,0 -835.93,-364.2 -987.67,-357.6 -151.74,6.6 -1086.75,284.8 -1086.75,284.8 l 23.8,-160.8 c 0,0 721.58,-415 973.85,-438.6 248.36,-23.2 1097.6,222.9 1179.59,274.9 81.99,51.9 135.45,344.7 -102.82,397.3"
         style="fill:#ed985f;fill-opacity:1;fill-rule:nonzero;stroke:none"
         id="path18" /><path
         d="m 6863.72,9743.7 c 0,0 308.38,58.5 461.97,-53.6 278.22,-203.2 293.16,-903.6 397.43,-1008 104.28,-104.3 355.63,-59.8 378,-599.7 22.38,-539.9 -100.07,-585.1 45.76,-826.1 145.83,-241 -61.69,-482.2 -61.69,-482.2 0,0 84.99,133 48.56,229.1 0,0 -35.38,-212 -170.01,-261.6 -134.65,-49.7 -154.57,-86.1 -176.07,-159 0,0 -1148.63,588.6 -1149.89,1006.1 -1.25,417.4 -226.03,831 -115.65,1011.9 0,0 -49.16,-77.4 -55.19,-163.5 0,0 -66.23,126.9 48.57,245 114.8,118.2 -134.67,362.6 -97.73,645.8 25.35,194.4 161.75,407.3 445.94,415.8"
         style="fill:#233862;fill-opacity:1;fill-rule:nonzero;stroke:none"
         id="path20" /><path
         d="m 6636.53,8006.1 c 73.42,-50.9 165.48,-92.9 281.04,-119.6 433.18,-100.1 599.19,266.1 661.54,517.4 -59.07,33.8 -114.66,41.2 -146.76,45.1 -31.31,3.7 -64.24,6.1 -91.51,7.5 -48.64,37.2 -121.12,189.7 -137.15,426.5 l -20.38,-5.5 -341.4,-93.4 c 0,0 15.64,-108.6 23.3,-211.1 5.93,-80.3 6.86,-157 -8.34,-175.8 -26.65,-5.8 -42.63,-9.5 -42.63,-9.5 l -0.18,-0.4 c -4.58,-7.5 -103.62,-170.4 -177.53,-381.2"
         style="fill:#ffb27d;fill-opacity:1;fill-rule:nonzero;stroke:none"
         id="path22" /><path
         d="m 6841.89,8784 c 0,0 15.7,-108.4 23.3,-211.1 193.42,19.4 283.18,203.5 318.13,304.5 L 6841.89,8784"
         style="fill:#ed985f;fill-opacity:1;fill-rule:nonzero;stroke:none"
         id="path24" /><path
         d="m 6784.14,8682.1 c 0,0 459.1,25.4 438.92,311 -20.17,285.7 25.49,481.3 -268.48,477.2 -293.98,-4.1 -343.17,-117.1 -359.62,-214.1 -16.46,-97 69.24,-573.3 189.18,-574.1"
         style="fill:#ffb27d;fill-opacity:1;fill-rule:nonzero;stroke:none"
         id="path26" /><path
         d="m 6597.2,9416 c 64.72,91 119.64,76 151.5,52.3 240.75,155.8 416.87,-36.3 416.87,-36.3 45.38,-202.8 201.59,-309.6 201.59,-309.6 0,0 -79.87,-57.6 -276.11,-21.9 -59.94,10.9 -115.49,49 -163.79,96.5 87.35,-125.1 200.24,-211.6 200.24,-211.6 -237.79,89.8 -353.17,403.3 -364.81,436.5 -26.19,-27.1 -77.45,-85.7 -90.43,-140.4 -17.65,-74.4 -93.75,-190.7 -137.76,-188.7 0,0 -34.36,186.8 62.7,323.2"
         style="fill:#233862;fill-opacity:1;fill-rule:nonzero;stroke:none"
         id="path28" /><path
         d="m 7709.88,7072.7 c 41.46,212 176.63,1058.7 41.46,1331.2 -48.55,97.9 -239.05,106.7 -448.06,98.1 -65.04,-42 -312.87,-200.6 -414.67,-180.8 -1.09,0.2 -3.07,0.7 -5.7,1.3 -47.93,12 -66.03,45.7 -26.04,74.7 0.08,0.1 -103.53,10 -232.08,-14.2 -72.61,-13.7 -268.46,-115 -268.46,-115 0,0 98.63,-178.2 244.06,-239.7 -24.73,-221.2 12.04,-318.8 241.53,-829.7 193.92,-431.9 -26.16,-820.8 -26.16,-820.8 0,0 1141.55,-917.8 1147.91,-450.5 4.77,351.8 -306.78,874.5 -253.79,1145.4"
         style="fill:#b5453c;fill-opacity:1;fill-rule:nonzero;stroke:none"
         id="path30" /><path
         d="m 6759.17,5379.8 c -62.09,7 -117.98,41 -152.69,93 -5.5,8.2 -11.39,17.1 -17.64,26.5 -129.95,196.7 -180.51,799.2 -472.79,1440.9 -71.19,156.3 -326.74,184.4 -396.42,361 0,0 -171.5,572.5 328.27,589.4 499.78,16.9 1338.49,-1592.9 1351.74,-1761.7 12.83,-163.6 330.42,-858.6 -640.47,-749.1"
         style="fill:#dd6d22;fill-opacity:1;fill-rule:nonzero;stroke:none"
         id="path32" /><path
         d="m 4772.75,5393 h 711.35 c 0,0 26.59,113.4 -20.11,190.6 -41.34,68.3 -25.5,107.3 5.12,163.8 -32.23,-13.2 -73.91,-25.2 -119.81,-22.6 -35.44,2 -72.92,18.1 -105.79,37.2 -30.61,-34.9 -161.71,-183.5 -202.67,-212.9 -46.49,-33.4 -253.77,-21.5 -268.09,-156.1"
         style="fill:#9e332e;fill-opacity:1;fill-rule:nonzero;stroke:none"
         id="path34" /><path
         d="m 7634.89,8181.9 c 0,0 92.58,-842.3 -507.85,-1018.8 -600.42,-176.5 -770.87,775 -286.09,843.5 484.79,68.4 793.94,175.3 793.94,175.3"
         style="fill:#9e332e;fill-opacity:1;fill-rule:nonzero;stroke:none"
         id="path36" /><path
         d="m 5703.37,7725.1 c -42.83,-321.1 -210.1,-1334.7 -505.16,-1829.2 -95.13,-159.4 239.67,-248.8 241.47,-248.3 44.91,11.8 119.71,83.3 154.2,114.4 239.55,215.9 725.83,827.2 725.83,1317.3 0,239 4.2,695.4 -169.57,811.4 -107.02,71.4 -429.75,-38.1 -446.77,-165.6"
         style="fill:#ed7d2b;fill-opacity:1;fill-rule:nonzero;stroke:none"
         id="path38" /><path
         d="m 7183.34,5393 c 0,0 -26.36,36.7 -72.32,106.3 -54.71,82.9 -115.25,246 -188.7,455 -77.15,219.4 -168.69,489.4 -283.07,770.2 -35.3,86.7 -72.79,174.5 -112.66,262.1 -71.19,156.3 -267.04,134.7 -336.72,311.3 0,0 -271.87,612.3 227.9,629.2 499.78,16.9 1449.47,-1638 1504.05,-1798.2 59.74,-175.5 351.22,-904 -738.48,-735.9"
         style="fill:#f99746;fill-opacity:1;fill-rule:nonzero;stroke:none"
         id="path40" /><path
         d="m 5294.93,5393 h 711.34 c 0,0 26.6,113.4 -20.1,190.6 -41.35,68.3 -25.5,107.3 5.11,163.8 -32.22,-13.2 -73.91,-25.2 -119.81,-22.6 -35.43,2 -72.92,18.1 -105.78,37.2 -30.62,-34.9 -161.71,-183.5 -202.67,-212.9 -46.49,-33.4 -253.78,-21.5 -268.09,-156.1"
         style="fill:#b5453c;fill-opacity:1;fill-rule:nonzero;stroke:none"
         id="path42" /><path
         d="m 6922.32,5954.3 c -77.15,219.4 -168.69,489.4 -283.07,770.2 29.87,212.8 94.31,399 202.67,474.1 0,0 262.87,-814.4 80.4,-1244.3"
         style="fill:#ed7d2b;fill-opacity:1;fill-rule:nonzero;stroke:none"
         id="path44" /><path
         d="m 6118.61,7747.9 c -42.84,-321.2 -103.16,-1357.5 -398.23,-1852 -95.13,-159.4 239.67,-248.8 241.48,-248.3 44.91,11.8 119.71,83.3 154.19,114.4 239.56,215.9 725.84,827.2 725.84,1317.3 0,239 -280.45,676.2 -454.22,792.2 -107.02,71.5 -252.04,3.9 -269.06,-123.6"
         style="fill:#f99746;fill-opacity:1;fill-rule:nonzero;stroke:none"
         id="path46" /><path
         d="m 4578.78,8744.9 728.49,77.4 c 21.24,2.3 41.32,-10.1 48.92,-30 l 260.64,-684.9 c 11.43,-30 -9.95,-62.4 -42.05,-63.7 l -722.86,-29.2 c -19.64,-0.8 -37.7,10.7 -45.28,28.9 L 4540.37,8680 c -12.14,29.1 7.12,61.6 38.41,64.9"
         style="fill:#9e332e;fill-opacity:1;fill-rule:nonzero;stroke:none"
         id="path48" /><path
         d="m 4515.5,8738.3 728.49,77.4 c 21.23,2.2 41.32,-10.1 48.92,-30.1 l 260.64,-684.8 c 11.43,-30.1 -9.95,-62.5 -42.05,-63.7 l -722.86,-29.2 c -19.64,-0.8 -37.7,10.7 -45.28,28.8 l -266.27,636.7 c -12.14,29 7.11,61.6 38.41,64.9"
         style="fill:#b5453c;fill-opacity:1;fill-rule:nonzero;stroke:none"
         id="path50" /><path
         d="m 4919.3,8418.5 c -8.9,24.5 3.7,44.3 28.15,44.3 24.44,0 51.48,-19.8 60.38,-44.3 8.89,-24.4 -3.71,-44.2 -28.16,-44.2 -24.45,0 -51.48,19.8 -60.37,44.2"
         style="fill:#9e332e;fill-opacity:1;fill-rule:nonzero;stroke:none"
         id="path52" /><path
         d="m 4537.3,8673.6 c -4.37,12 1.82,21.7 13.83,21.7 12.01,0 25.3,-9.7 29.67,-21.7 4.37,-12 -1.83,-21.8 -13.84,-21.8 -12.01,0 -25.29,9.8 -29.66,21.8"
         style="fill:#9e332e;fill-opacity:1;fill-rule:nonzero;stroke:none"
         id="path54" /><path
         d="m 7579.11,8403.9 c 0,0 -1009.64,-371.8 -1161.33,-364.2 -98.06,4.9 -913.08,291.4 -913.08,291.4 0,0 -60.47,93 -126.2,112.4 -0.02,0.1 -115.86,53.2 -148.97,63.1 -33.12,10 -26.5,-0.1 -16.56,-31.5 5.15,-16.3 23.65,-32.2 40.28,-45.1 -55.68,-15.3 -110.68,-36 -136.32,-40.9 -43.05,-8.3 -165.58,-48.1 -129.15,-107.7 36.43,-59.6 205.32,-72.8 278.17,-59.6 72.85,13.3 165.58,-29.1 165.58,-29.1 0,0 793.27,-509.9 1011.36,-507.3 430.56,4.9 1157.06,269.2 1239.05,321.2 81.99,51.9 135.44,344.7 -102.83,397.3"
         style="fill:#ffb27d;fill-opacity:1;fill-rule:nonzero;stroke:none"
         id="path56" /><path
         d="m 4590.54,8390.7 c 0,0 73.05,115.6 96.97,120.3 72.88,14.4 72.88,-81.6 57.43,-143.5 -16.59,-66.4 -72.71,-129 -88.24,-123.6 -15.53,5.5 -83.34,85.8 -66.16,146.8"
         style="fill:#ffb27d;fill-opacity:1;fill-rule:nonzero;stroke:none"
         id="path58" /><path
         d="m 4587.77,8367.5 c 0,0 -23.35,-129.6 99.74,-197.2 l -99.74,197.2"
         style="fill:#ffb27d;fill-opacity:1;fill-rule:nonzero;stroke:none"
         id="path60" /><path
         d="m 6698.19,8846.4 c 0,0 43.4,17.2 165.53,7.3 0,0 -6.48,-47.7 -96.56,-52.4 -51.02,-2.6 -68.97,45.1 -68.97,45.1"
         style="fill:#ffffff;fill-opacity:1;fill-rule:nonzero;stroke:none"
         id="path62" /><path
         d="m 7058.94,8220.5 c 0,0 90.3,-285.8 400.42,-350.9 0,0 512.13,157.8 257.14,506.7 0,0 -252.12,187.3 -657.56,-155.8"
         style="fill:#b5453c;fill-opacity:1;fill-rule:nonzero;stroke:none"
         id="path64" /><path
         d="m 11392.2,11001.1 c -0.7,-1.2 -0.7,-1.9 -1.3,-3.2 -16.1,-37.2 -32.8,-74.4 -50.7,-111 -115.6,-239.4 -270.2,-456.4 -460.2,-646.4 -218.3,-218.9 -473.1,-390.2 -756.8,-510.3 -293.98,-124.5 -605.28,-187.4 -926.86,-187.4 -321.57,0 -633.52,62.9 -927.49,187.4 -283.71,120.1 -537.89,291.4 -756.76,510.3 -218.88,218.9 -390.9,473.7 -510.93,757.4 -77.02,183 -130.3,372.3 -159.18,567.4 -7.06,43 -12.19,86 -16.05,129.7 -5.13,51.3 -8.98,103.3 -10.27,155.3 -0.64,25.1 -1.28,49.4 -1.28,74.5 0,28.9 0.64,58.4 1.28,87.3 8.34,216.3 44.93,427.5 109.12,631.6 10.91,34.6 22.46,68.6 35.3,102.7 12.84,35.3 26.32,70.6 41.08,105.2 21.18,48.8 43.01,97 66.76,143.8 22.46,44.9 46.21,88.6 71.24,131.6 69.97,119.4 150.2,232.4 240.06,338.3 37.23,43.6 75.74,86 116.18,127 5.77,5.8 10.91,11 16.69,16.7 181,181 387.04,329.9 613.62,444.2 46.86,23.7 94.35,45.6 143.14,66.1 12.83,5.8 26.31,10.9 39.15,16.1 281.78,113.6 580.89,171.3 888.34,171.3 321.58,0 632.88,-62.9 926.86,-187.4 283.7,-120 538.5,-291.4 756.8,-510.3 218.8,-218.8 390.9,-473.7 510.9,-757.4 123.9,-293.3 186.8,-605.2 186.8,-926.8 0,-320.3 -62.3,-631 -185.5,-923.7 z m 133.5,1907.7 c -127.1,301 -309.4,571.9 -541.8,803.6 -232.3,232.3 -502.5,414.6 -803.6,542.4 -311.93,131.5 -643.13,198.3 -983.96,198.3 -341.47,0 -672.68,-66.8 -984.62,-198.3 -37.23,-16.1 -74.45,-32.8 -110.4,-50.1 -59.69,-28.9 -118.75,-59.7 -175.23,-93.1 -188.71,-109.1 -362.01,-242.6 -517.99,-399.2 -32.73,-32.1 -64.18,-65.5 -94.99,-100.2 -38.52,-42.3 -75.1,-86.6 -110.4,-131.5 -56.48,-71.9 -108.48,-147 -156.62,-224 -26.96,-43.1 -51.99,-87.3 -76.38,-131.6 -37.87,-70 -71.89,-141.9 -103.34,-216.3 -23.75,-55.9 -44.93,-111.7 -64.19,-168.9 -12.19,-34.6 -23.11,-69.3 -33.37,-104.6 -51.35,-173.3 -82.8,-352.4 -95,-534 -3.85,-53.9 -5.78,-107.9 -6.42,-162.4 v -14.1 c 0,-54.6 1.93,-109.1 5.14,-163.1 2.56,-44.3 7.05,-88.5 12.19,-132.8 26.96,-236.9 87.94,-467.3 181.65,-688.1 127.09,-301 309.38,-571.9 541.73,-804.3 232.36,-231.7 502.58,-414 803.62,-541.7 311.94,-131.6 643.15,-198.3 984.62,-198.3 340.83,0 672.03,66.7 983.96,198.3 301.1,127.7 571.3,310 803.6,541.7 226,226 405.1,489.1 531.5,780.6 3.2,7.7 7.1,16 10.3,23.7 14.1,33.4 27.6,66.8 39.8,100.1 105.9,281.8 159.1,579 159.1,883.9 0,341.5 -66.7,672.6 -198.9,984 z m -4711.32,-984 c 0,28.9 0.64,58.4 1.28,87.3 8.34,216.3 44.93,427.5 109.12,631.6 -53.92,-2 -105.91,-5.2 -155.97,-8.4 -51.35,-173.3 -82.8,-352.4 -95,-534 -3.85,-53.9 -5.78,-107.9 -6.42,-162.4 v -14.1 c 0,-54.6 1.93,-109.1 5.14,-163.1 49.42,-23.1 100.13,-44.9 153.4,-66.7 -5.13,51.3 -8.98,103.3 -10.27,155.3 -0.64,25.1 -1.28,49.4 -1.28,74.5"
         style="fill:#adcbf9;fill-opacity:1;fill-rule:nonzero;stroke:none"
         id="path66" /><path
         d="m 11996.2,11415.1 -195.8,4.5 c 62.9,-81.5 77,-156.6 37.9,-220.1 -39.2,-64.9 -132.9,-118.1 -272.8,-158.6 -51.4,-15.4 -109.2,-28.2 -173.3,-39.8 -171.4,-30.8 -385.2,-48.7 -634.8,-51.3 -631.6,-7.7 -1415.99,78.3 -2208.06,240.7 -533.39,109.7 -1026.34,245.2 -1439.06,394.1 -62.91,22.5 -123.88,45.6 -182.29,68.7 -34.66,13.5 -68.68,27.6 -102.06,41.7 -53.27,21.8 -103.98,43.6 -153.4,66.7 -34.67,15.5 -68.04,31.5 -100.78,47.5 -455.08,222.1 -663.04,436.5 -569.97,588.6 75.1,123.3 348.53,206.7 767.03,237.5 50.06,3.2 102.05,6.4 155.97,8.4 10.91,34.6 22.46,68.6 35.3,102.7 -54.55,-1.3 -107.19,-3.9 -157.9,-6.5 -527.61,-31.4 -810.03,-124.3 -912.73,-292.4 -119.39,-195.8 43.65,-458.5 565.48,-714 71.89,-35.3 148.92,-70 229.79,-104.6 50.71,-21.2 103.34,-42.4 157.26,-63.6 25.03,-9.6 50.07,-19.2 75.1,-28.9 61.61,-23.1 124.52,-46.2 189.35,-68.6 405.66,-140.6 878.07,-267.7 1385.14,-372.3 709.26,-145.1 1414.04,-231.1 2016.73,-245.2 88.6,-2.6 174.6,-2.6 258,-1.9 216.4,2.5 408.9,15.4 573.9,38.5 62.2,8.3 120.6,18.6 175.2,30.2 257.4,53.2 426.8,136.7 494.2,247.1 46.9,76.4 41.1,161.1 -13.4,250.9"
         style="fill:#adcbf9;fill-opacity:1;fill-rule:nonzero;stroke:none"
         id="path68" /><path
         d="m 10915.7,11477.7 c -2.5,-4.5 -5.1,-9.1 -7.9,-13.5 -77.4,-122.9 -250.4,-186.4 -493.4,-186.3 -116.2,0 -248.5,14.5 -393.8,44 -478.03,97 -1043.11,340.5 -1591.08,685.9 -538.67,339.4 -995.73,736 -1290.14,1119.2 -5.14,6.7 -10.16,13.3 -15.18,19.9 -27.94,37.1 -54.01,73.6 -78.16,109.5 -214.74,318.8 -279.3,589.1 -176.42,752.3 77.43,122.9 250.46,186.3 493.41,186.3 116.19,0 248.47,-14.5 393.85,-44 55.19,-11.2 111.57,-24.3 168.91,-39.4 65.35,-17.1 131.94,-36.7 199.66,-58.6 46.95,23.7 94.87,45.8 143.57,66.4 12.92,5.5 25.84,10.8 38.88,16 -69.92,25.4 -138.94,48.5 -206.88,69.1 -108.75,33.2 -214.68,60.4 -316.88,81.1 -515.87,104.7 -881.95,32.3 -1030.66,-203.7 -141.54,-224.6 -64.45,-562.6 216.48,-956.9 14.34,-20.1 29.18,-40.4 44.59,-60.8 17.21,-22.8 35.04,-45.7 53.38,-68.6 304.58,-380.7 758.59,-770.2 1288.39,-1104 561.69,-353.9 1143.07,-604.1 1636.99,-704.3 154.29,-31.3 295.09,-46.8 420.79,-46.8 294.6,0 505.6,85.1 609.9,250.5 17.1,27.3 31.1,56.2 41.9,86.7 h -150.2"
         style="fill:#adcbf9;fill-opacity:1;fill-rule:nonzero;stroke:none"
         id="path70" /><path
         d="m 9819.17,14154.4 c -274.43,0 -849.36,-768.5 -1299.68,-2010.2 -217.29,-599.1 -359.14,-1184.1 -399.42,-1647.3 -43.33,-498.3 45.68,-713.7 143.43,-749.2 12.54,-4.5 25.66,-6.8 40.11,-6.8 274.42,0 849.35,768.6 1299.68,2010.2 217.29,599.2 359.14,1184.2 399.41,1647.4 43.3,498.3 -45.66,713.7 -143.41,749.1 -12.54,4.6 -25.67,6.8 -40.12,6.8 z M 8303.61,9607 c -29.87,0 -58.73,5 -85.78,14.8 -433.76,157.3 -233.2,1440.6 175.74,2568.1 378.21,1042.8 989.34,2098.4 1425.6,2098.4 29.87,0 58.74,-4.9 85.79,-14.7 247.04,-89.6 262.04,-531.7 231.24,-886.7 -41.3,-474.5 -185.83,-1071.6 -406.99,-1681.4 C 9351,10662.7 8739.87,9607 8303.61,9607"
         style="fill:#adcbf9;fill-opacity:1;fill-rule:nonzero;stroke:none"
         id="path72" /><path
         d="m 10891,12384.4 c -483.2,0 -924.69,45.8 -1318.77,137.3 -471.39,109.5 -876.67,284.1 -1204.6,519.1 -564.38,404.3 -703.07,844 -708.7,862.5 l 128.11,39.1 c 1.29,-4.2 135.36,-421.6 667.91,-799.4 494.94,-351.1 1444.33,-739 3156.75,-592.7 l 11.3,-133.5 c -253.3,-21.6 -497.6,-32.4 -732,-32.4"
         style="fill:#adcbf9;fill-opacity:1;fill-rule:nonzero;stroke:none"
         id="path74" /><path
         d="m 10415.8,9753.6 c -936.83,697.4 -1862.07,1009.6 -2473.29,1148.7 -660.6,150.4 -1102.91,136.2 -1107.29,136 l -4.9,133.9 c 18.63,0.7 464.37,14.9 1141.92,-139.3 623.79,-142 1567.97,-460.5 2523.56,-1171.9 l -80,-107.4"
         style="fill:#adcbf9;fill-opacity:1;fill-rule:nonzero;stroke:none"
         id="path76" /><path
         d="m 28210.7,4779.3 c 0,-146 -59.3,-278.1 -154.9,-373.8 -95.6,-95.8 -227.8,-154.9 -373.8,-154.9 h -4307.1 v 1025.3 h 4339.4 c 27.1,0 53.9,-2.2 79.9,-6.4 236.1,-38.3 416.5,-243.1 416.5,-490.2"
         style="fill:#f99746;fill-opacity:1;fill-rule:nonzero;stroke:none"
         id="path78" /><path
         d="m 24174.4,4769 c 0,-142.4 -57.3,-271.3 -150.2,-365 l -1.6,-1.6 c -93.8,-93.8 -223.4,-151.8 -366.4,-151.8 h -4893.6 v 1025.3 h 4905 c 142.4,0 271.1,-58.8 363.2,-153.4 88.8,-91.3 143.6,-215.9 143.6,-353.5"
         style="fill:#fcecdb;fill-opacity:1;fill-rule:nonzero;stroke:none"
         id="path80" /><path
         d="m 24581.1,4327.4 c 0,-21.3 -8.5,-40.4 -22.4,-54.3 -13.9,-13.8 -33.1,-22.5 -54.2,-22.5 h -5916.2 c -42.5,0 -76.8,34.4 -76.8,76.8 0,21.1 8.5,40.3 22.5,54.2 13.9,13.9 33.1,22.4 54.3,22.4 h 5916.2 c 42.3,0 76.6,-34.3 76.6,-76.6"
         style="fill:#ed7d2b;fill-opacity:1;fill-rule:nonzero;stroke:none"
         id="path82" /><path
         d="m 24581.1,5199.2 c 0,-21.2 -8.5,-40.3 -22.4,-54.2 -13.9,-13.9 -33.1,-22.5 -54.2,-22.5 h -5916.2 c -42.5,0 -76.8,34.3 -76.8,76.7 0,21.2 8.5,40.4 22.5,54.3 13.9,13.8 33.1,22.4 54.3,22.4 h 5916.2 c 42.3,0 76.6,-34.4 76.6,-76.7"
         style="fill:#ed7d2b;fill-opacity:1;fill-rule:nonzero;stroke:none"
         id="path84" /><path
         d="m 18762.6,4763.3 656.1,-17.3 -656.1,-10.4 z"
         style="fill:#f4d2b8;fill-opacity:1;fill-rule:nonzero;stroke:none"
         id="path86" /><path
         d="m 18762.6,4602.4 1561,-17.2 -1561,-10.4 z"
         style="fill:#f4d2b8;fill-opacity:1;fill-rule:nonzero;stroke:none"
         id="path88" /><path
         d="M 27794.2,5269.5 26378,4250.6 h -3003.1 v 1025.3 h 4339.4 c 27.1,0 53.9,-2.2 79.9,-6.4"
         style="fill:#ed7d2b;fill-opacity:1;fill-rule:nonzero;stroke:none"
         id="path90" /><path
         d="M 10855.9,4250.7 H 7893.61 v 1205.5 h 2994.49 c 273.9,0 495.9,-222.1 495.9,-496 v -181.4 c 0,-291.7 -236.4,-528.1 -528.1,-528.1"
         style="fill:#86d1cd;fill-opacity:1;fill-rule:nonzero;stroke:none"
         id="path92" /><path
         d="M 7977.81,4250.7 H 4564.62 v 1205.5 h 3424.12 c 266.21,0 482.01,-215.9 482.01,-482.1 v -230.5 c 0,-272.2 -220.7,-492.9 -492.94,-492.9"
         style="fill:#fcecdb;fill-opacity:1;fill-rule:nonzero;stroke:none"
         id="path94" /><path
         d="m 8687.71,4250.7 h -4227.7 c -42.3,0 -76.59,34.2 -76.59,76.5 v 27.2 c 0,42.3 34.29,76.5 76.59,76.5 h 4227.7 c 42.29,0 76.58,-34.2 76.58,-76.5 v -27.2 c 0,-42.3 -34.29,-76.5 -76.58,-76.5"
         style="fill:#86d1cd;fill-opacity:1;fill-rule:nonzero;stroke:none"
         id="path96" /><path
         d="m 8687.71,5275.9 h -4227.7 c -42.3,0 -76.59,34.2 -76.59,76.5 v 27.2 c 0,42.3 34.29,76.6 76.59,76.6 h 4227.7 c 42.29,0 76.58,-34.3 76.58,-76.6 v -27.2 c 0,-42.3 -34.29,-76.5 -76.58,-76.5"
         style="fill:#86d1cd;fill-opacity:1;fill-rule:nonzero;stroke:none"
         id="path98" /><path
         d="m 4564.62,4853.4 473.57,-20.3 -473.57,-12.2 z"
         style="fill:#f4d2b8;fill-opacity:1;fill-rule:nonzero;stroke:none"
         id="path100" /><path
         d="M 4564.62,4664.3 5691.27,4644 4564.62,4631.8 Z"
         style="fill:#f4d2b8;fill-opacity:1;fill-rule:nonzero;stroke:none"
         id="path102" /><path
         d="m 12525.1,9797.2 -439.7,-5228.6 c 0,0 -46.1,-317 189.7,-317.5 387.6,-1 1929.3,0 1929.3,0 0,0 -291.7,65.9 -288.2,214.4 4.2,175 514,5381.2 514,5381.2 l -1905.1,-49.5"
         style="fill:#d86713;fill-opacity:1;fill-rule:nonzero;stroke:none"
         id="path104" /><path
         d="m 14329.5,4345.9 c -76.2,-0.2 -1548.8,-4.8 -1926.3,0 -164.5,2.1 -193.3,146.3 -194.7,239.6 -0.6,44.8 5,77.9 5,77.9 l 11.5,135.9 29.1,346.4 25.7,306 33.1,393.2 27.9,331.9 312.4,3715.3 1905.1,49.5 c 0,0 -214.7,-2178.8 -366.6,-3764.8 -16.9,-176.7 -33,-346.1 -48,-504.3 -4.8,-50.5 -9.4,-99.8 -14,-147.9 -14,-150.1 -26.9,-287.9 -38.1,-409.5 -5.9,-64.2 -11.4,-123.7 -16.3,-178.3 -19.4,-213.9 -30.7,-350.5 -30.9,-376.5 -0.1,-15.1 1.2,-29.2 3.7,-42.3 31.3,-166.6 252.8,-172.1 281.4,-172.1"
         style="fill:#ee9849;fill-opacity:1;fill-rule:nonzero;stroke:none"
         id="path106" /><path
         d="m 7898.56,12642.4 1071.13,-4302.5 146.66,-589.2 498.88,-2004 h 9268.37 l -1838.8,6895.7 H 7898.56"
         style="fill:#f1a34f;fill-opacity:1;fill-rule:nonzero;stroke:none"
         id="path108" /><path
         d="m 7898.54,12642.4 -148.44,-49.5 1667.78,-6995.9 197.36,149.7 -1716.7,6895.7"
         style="fill:#ee9849;fill-opacity:1;fill-rule:nonzero;stroke:none"
         id="path110" /><path
         d="m 9417.88,5597 h 9211.32 l 254.4,149.7 H 9615.24 L 9417.88,5597"
         style="fill:#d86713;fill-opacity:1;fill-rule:nonzero;stroke:none"
         id="path112" /><path
         d="M 12652.6,4249.1 H 14647 v 94.7 h -1994.4 v -94.7"
         style="fill:#f1a34f;fill-opacity:1;fill-rule:nonzero;stroke:none"
         id="path114" /><path
         d="m 18434.6,7017.3 -1503.9,5534 H 7883.74 v 91.1 h 9161.06 l 1498.9,-5612.8 -109.1,-12.3"
         style="fill:#f1a34f;fill-opacity:1;fill-rule:nonzero;stroke:none"
         id="path116" /><path
         d="m 14140,5597 -10.3,-72.4 -1875.6,-378.9 25.7,306 12.3,145.3 H 14140"
         style="fill:#d86713;fill-opacity:1;fill-rule:nonzero;stroke:none"
         id="path118" /><path
         d="m 14329.5,4345.9 c -76.2,-0.2 -1548.8,-4.8 -1926.2,0 -164.6,2.1 -193.4,146.3 -194.8,239.6 l 1866.8,351.3 c -19.4,-213.9 -30.7,-350.5 -30.9,-376.5 -0.1,-15.1 1.2,-29.2 3.7,-42.3 31.3,-166.6 252.8,-172.1 281.4,-172.1"
         style="fill:#e78b37;fill-opacity:1;fill-rule:nonzero;stroke:none"
         id="path120" /><path
         d="M 13686.7,7142.6 9615.24,5746.7 9116.35,7750.7 Z"
         style="fill:#e78b37;fill-opacity:1;fill-rule:nonzero;stroke:none"
         id="path122" /><path
         d="m 7898.55,12642.4 h 9146.25 l 1484,-5542 H 9231.11 l -1332.56,5542"
         style="fill:#699dee;fill-opacity:1;fill-rule:nonzero;stroke:none"
         id="path124" /><path
         d="m 14495.1,6399.8 c -26.4,136 -158,246.1 -293.9,246.1 -135.9,0 -224.7,-110.1 -198.3,-246.1 26.5,-135.9 158.1,-246.1 294,-246.1 135.9,0 224.7,110.2 198.2,246.1"
         style="fill:#d86713;fill-opacity:1;fill-rule:nonzero;stroke:none"
         id="path126" /><path
         d="M 18097.5,7340.6 H 9533.76 l -969.82,3863.4 -74.34,296.3 -63.45,252.7 -148.73,592.6 h 8440.28 l 163.3,-592.6 69.7,-252.7 81.7,-296.3 1065.1,-3863.4"
         style="fill:#e9f3fe;fill-opacity:1;fill-rule:nonzero;stroke:none"
         id="path128" /><path
         d="M 16881,11753 H 8426.15 l -148.73,592.6 H 16717.7 L 16881,11753"
         style="fill:#afcdfb;fill-opacity:1;fill-rule:nonzero;stroke:none"
         id="path130" /><path
         d="m 8626.58,12077.8 c -10.2,40.9 14.7,74.1 55.61,74.1 40.91,0 82.34,-33.2 92.54,-74.1 10.2,-40.9 -14.7,-74.1 -55.6,-74.1 -40.92,0 -82.35,33.2 -92.55,74.1"
         style="fill:#e9f3fe;fill-opacity:1;fill-rule:nonzero;stroke:none"
         id="path132" /><path
         d="m 8872.71,12077.8 c -10.21,40.9 14.69,74.1 55.6,74.1 40.91,0 82.34,-33.2 92.54,-74.1 10.2,-40.9 -14.69,-74.1 -55.6,-74.1 -40.91,0 -82.34,33.2 -92.54,74.1"
         style="fill:#e9f3fe;fill-opacity:1;fill-rule:nonzero;stroke:none"
         id="path134" /><path
         d="m 9137.73,12077.8 c -10.2,40.9 14.7,74.1 55.61,74.1 40.91,0 82.34,-33.2 92.54,-74.1 10.2,-40.9 -14.69,-74.1 -55.61,-74.1 -40.9,0 -82.34,33.2 -92.54,74.1"
         style="fill:#e9f3fe;fill-opacity:1;fill-rule:nonzero;stroke:none"
         id="path136" /><path
         d="m 9717.8,7930.7 c 0,170.9 143.12,309.5 319.7,309.5 176.5,0 319.6,-138.6 319.6,-309.5 0,-171 -143.1,-309.5 -319.6,-309.5 -176.58,0 -319.7,138.5 -319.7,309.5"
         style="fill:#699dee;fill-opacity:1;fill-rule:nonzero;stroke:none"
         id="path138" /><path
         d="m 10011.8,8113.1 183.6,-158.8 c 16.2,-14 16.1,-38.5 -0.3,-52.3 l -180.5,-152.3 c -23.21,-19.6 -59.42,-3.8 -59.72,25.9 l -3.13,311.2 c -0.3,30.3 36.68,46.5 60.05,26.3"
         style="fill:#e9f3fe;fill-opacity:1;fill-rule:nonzero;stroke:none"
         id="path140" /><path
         d="m 17244.8,7894.9 c 0,-16 -6.6,-30.6 -17.1,-41.1 -10.6,-10.6 -25.2,-17.2 -41.2,-17.2 H 10663 c -32.1,0 -58.3,26.3 -58.3,58.3 0,16 6.6,30.6 17.1,41.2 10.6,10.6 25.2,17.2 41.2,17.2 h 6523.5 c 32.1,0 58.3,-26.3 58.3,-58.4"
         style="fill:#afcdfb;fill-opacity:1;fill-rule:nonzero;stroke:none"
         id="path142" /><path
         d="M 11389.2,7953.3 V 7836.6 H 10663 c -32.1,0 -58.3,26.3 -58.3,58.3 0,16 6.6,30.6 17.1,41.2 10.6,10.6 25.2,17.2 41.2,17.2 h 726.2"
         style="fill:#699dee;fill-opacity:1;fill-rule:nonzero;stroke:none"
         id="path144" /><path
         d="m 16439,8432.7 h -5671.1 l -642.3,2321.2 -49.2,177.9 -42,151.8 -98.58,356 h 5589.48 l 108.1,-356 46.1,-151.8 54.2,-177.9 705.3,-2321.2"
         style="fill:#afcdfb;fill-opacity:1;fill-rule:nonzero;stroke:none"
         id="path146" /><path
         d="m 15571.9,10151.8 h -1864.6 l -211.2,763.2 -16.2,58.5 -13.7,49.9 -32.5,117 h 1837.8 l 35.5,-117 15.2,-49.9 17.8,-58.5 231.9,-763.2"
         style="fill:#e9f3fe;fill-opacity:1;fill-rule:nonzero;stroke:none"
         id="path148" /><path
         d="m 14474.6,10340.9 h -646.5 l -73.2,264.7 -5.7,20.2 -4.7,17.4 -11.3,40.5 h 637.2 l 12.4,-40.5 5.2,-17.4 6.2,-20.2 80.4,-264.7"
         style="fill:#c6dcfc;fill-opacity:1;fill-rule:nonzero;stroke:none"
         id="path150" /><path
         d="m 15297.7,10340.9 h -646.5 l -73.3,264.7 -5.6,20.2 -4.8,17.4 -11.2,40.5 h 637.2 l 12.3,-40.5 5.3,-17.4 6.2,-20.2 80.4,-264.7"
         style="fill:#c6dcfc;fill-opacity:1;fill-rule:nonzero;stroke:none"
         id="path152" /><path
         d="m 14834.4,10995.1 h -1181.6 c -9.2,0 -16.8,7.6 -16.8,16.9 0,9.2 7.6,16.8 16.8,16.8 h 1181.6 c 9.3,0 16.8,-7.6 16.8,-16.8 0,-9.3 -7.5,-16.9 -16.8,-16.9"
         style="fill:#afcdfb;fill-opacity:1;fill-rule:nonzero;stroke:none"
         id="path154" /><path
         d="m 14878.2,10904.2 h -1181.6 c -9.3,0 -16.8,7.6 -16.8,16.9 0,9.2 7.5,16.8 16.8,16.8 h 1181.6 c 9.2,0 16.8,-7.6 16.8,-16.8 0,-9.3 -7.6,-16.9 -16.8,-16.9"
         style="fill:#afcdfb;fill-opacity:1;fill-rule:nonzero;stroke:none"
         id="path156" /><path
         d="m 15082.5,10772.2 h -1330.3 c -10.4,0 -19,8.5 -19,18.9 0,10.5 8.6,19 19,19 h 1330.3 c 10.4,0 18.9,-8.5 18.9,-19 0,-10.4 -8.5,-18.9 -18.9,-18.9"
         style="fill:#afcdfb;fill-opacity:1;fill-rule:nonzero;stroke:none"
         id="path158" /><path
         d="m 15920.3,8958.4 h -1864.6 l -211.2,763.2 -16.1,58.5 -13.8,49.9 -32.4,117 h 1837.7 l 35.6,-117 15.1,-49.9 17.8,-58.5 231.9,-763.2"
         style="fill:#e9f3fe;fill-opacity:1;fill-rule:nonzero;stroke:none"
         id="path160" /><path
         d="m 14823,9147.5 h -646.5 l -73.2,264.7 -5.6,20.2 -4.8,17.3 -11.3,40.6 h 637.2 l 12.4,-40.6 5.2,-17.3 6.2,-20.2 80.4,-264.7"
         style="fill:#c6dcfc;fill-opacity:1;fill-rule:nonzero;stroke:none"
         id="path162" /><path
         d="m 15646.1,9147.5 h -646.5 l -73.2,264.7 -5.7,20.2 -4.7,17.3 -11.3,40.6 h 637.2 l 12.3,-40.6 5.3,-17.3 6.2,-20.2 80.4,-264.7"
         style="fill:#c6dcfc;fill-opacity:1;fill-rule:nonzero;stroke:none"
         id="path164" /><path
         d="m 15182.8,9801.7 h -1181.6 c -9.2,0 -16.8,7.6 -16.8,16.9 0,9.2 7.6,16.8 16.8,16.8 h 1181.6 c 9.3,0 16.8,-7.6 16.8,-16.8 0,-9.3 -7.5,-16.9 -16.8,-16.9"
         style="fill:#afcdfb;fill-opacity:1;fill-rule:nonzero;stroke:none"
         id="path166" /><path
         d="M 15226.6,9710.8 H 14045 c -9.3,0 -16.8,7.6 -16.8,16.9 0,9.2 7.5,16.8 16.8,16.8 h 1181.6 c 9.2,0 16.8,-7.6 16.8,-16.8 0,-9.3 -7.6,-16.9 -16.8,-16.9"
         style="fill:#afcdfb;fill-opacity:1;fill-rule:nonzero;stroke:none"
         id="path168" /><path
         d="M 15258.6,9620 H 14077 c -9.3,0 -16.9,7.5 -16.9,16.8 0,9.2 7.6,16.8 16.9,16.8 h 1181.6 c 9.2,0 16.8,-7.6 16.8,-16.8 0,-9.3 -7.6,-16.8 -16.8,-16.8"
         style="fill:#afcdfb;fill-opacity:1;fill-rule:nonzero;stroke:none"
         id="path170" /><path
         d="m 6050.2,4896.7 c 0,0 -103.01,-49.5 -137.12,-130.8 -6.03,-14.2 -9.9,-29.4 -10.69,-45.5 -5.69,-108 0,-352.4 0,-352.4 L 5598.24,4490.2 5294.88,4368 v 331.3 c 0,62.6 26.04,123.6 74.36,163.5 23.43,19.3 51.85,33.9 84.03,33.9 h 596.93"
         style="fill:#f99746;fill-opacity:1;fill-rule:nonzero;stroke:none"
         id="path172" /><path
         d="m 6050.2,4896.7 c 0,0 -103.01,-49.5 -137.12,-130.8 l -609.52,-4.8 c 0,0 23.93,116.4 149.71,135.6 h 596.93"
         style="fill:#ed7d2b;fill-opacity:1;fill-rule:nonzero;stroke:none"
         id="path174" /><path
         d="m 20889,5266.8 h 3644.9 v 1559.8 h -3685.6 c -346.3,0 -627.1,-280.8 -627.1,-627.1 v -264.9 c 0,-368.8 299,-667.8 667.8,-667.8"
         style="fill:#b5453c;fill-opacity:1;fill-rule:nonzero;stroke:none"
         id="path176" /><path
         d="m 24444.1,5266.8 h 4203.1 v 1559.8 h -4216.9 c -336.6,0 -609.5,-272.9 -609.5,-609.5 v -327 c 0,-344.2 279.1,-623.3 623.3,-623.3"
         style="fill:#fcecdb;fill-opacity:1;fill-rule:nonzero;stroke:none"
         id="path178" /><path
         d="m 23555,5266.8 h 5219.2 c 53.5,0 96.9,43.4 96.9,96.9 v 39.6 c 0,53.4 -43.4,96.8 -96.9,96.8 H 23555 c -53.5,0 -96.8,-43.4 -96.8,-96.8 v -39.6 c 0,-53.5 43.3,-96.9 96.8,-96.9"
         style="fill:#b5453c;fill-opacity:1;fill-rule:nonzero;stroke:none"
         id="path180" /><path
         d="m 23555,6593.3 h 5219.2 c 53.5,0 96.9,43.3 96.9,96.8 v 39.6 c 0,53.5 -43.4,96.9 -96.9,96.9 H 23555 c -53.5,0 -96.8,-43.4 -96.8,-96.9 v -39.6 c 0,-53.5 43.3,-96.8 96.8,-96.8"
         style="fill:#b5453c;fill-opacity:1;fill-rule:nonzero;stroke:none"
         id="path182" /><path
         d="m 28647.2,6046.7 -585.1,-26.2 585.1,-15.8 z"
         style="fill:#f4d2b8;fill-opacity:1;fill-rule:nonzero;stroke:none"
         id="path184" /><path
         d="m 28647.2,6405.6 -1392.1,-26.2 1392.1,-15.8 z"
         style="fill:#f4d2b8;fill-opacity:1;fill-rule:nonzero;stroke:none"
         id="path186" /><path
         d="m 27269.5,6384.6 c 0,0 91.8,-49.4 122.2,-130.7 5.4,-14.2 8.9,-29.5 9.6,-45.5 5,-108 0,-352.5 0,-352.5 l 271.2,122.3 270.6,-122.3 v 331.4 c 0,62.6 -23.3,123.5 -66.4,163.5 -20.9,19.3 -46.2,33.8 -74.9,33.8 h -532.3"
         style="fill:#b5453c;fill-opacity:1;fill-rule:nonzero;stroke:none"
         id="path188" /><path
         d="m 27269.5,6384.6 c 0,0 91.8,-49.4 122.2,-130.7 l 543.6,-4.9 c 0,0 -21.3,116.4 -133.5,135.6 h -532.3"
         style="fill:#9e3732;fill-opacity:1;fill-rule:nonzero;stroke:none"
         id="path190" /><path
         d="m 19762.3,8569.7 c 0,0 -193.7,-110.1 -247.9,-110.1 -54.3,0 -267.2,41.1 -326.5,10.8 -59.3,-30.3 -166.7,-152.3 -186.9,-192.2 -36.2,-71.6 145.9,-40 232,21.1 12.5,8.8 28,12.1 43,8.8 44.6,-9.7 137.2,-26.5 181.9,-10 60.2,22.3 377,47 377,47 l -72.6,224.6"
         style="fill:#e49963;fill-opacity:1;fill-rule:nonzero;stroke:none"
         id="path192" /><path
         d="m 19543.3,4591 c 0,0 -20.8,-336.5 -85.9,-341.3 -8.7,-0.6 -330.2,-0.6 -330.2,-0.6 l -410.3,2.3 c 0,0 2.7,98.9 122.6,119.8 120,20.9 320.7,105.2 393.4,263.8 76.5,166.8 310.4,-44 310.4,-44"
         style="fill:#163560;fill-opacity:1;fill-rule:nonzero;stroke:none"
         id="path194" /><path
         d="m 21236.3,10070.1 c 0,0 -200.8,-1427.4 -533.4,-1555.2 -164.1,-63.1 -889.3,-206.1 -1103.8,-220.5 0,0 -52.5,42.7 -39.7,216.2 0,0 759.8,278.9 867.7,430.6 160.6,225.8 -99.7,922.3 101.8,1134.3 201.6,212.1 541.1,303.2 707.4,-5.4"
         style="fill:#ed7d2b;fill-opacity:1;fill-rule:nonzero;stroke:none"
         id="path196" /><path
         d="m 21168.6,7062.9 c -58.6,-99.4 -126.3,-192.5 -196.2,-280.7 -215.8,-272.5 -450.8,-497.2 -491.7,-709.6 -8.1,-42.3 -21.1,-87.9 -38,-135.9 -17.1,-48.6 -38.2,-99.8 -62.6,-152.7 -91.6,-198.9 -228.5,-421.9 -365.3,-624.5 -236.4,-350.3 -458.7,-642.7 -458.7,-642.7 l -407.8,17.4 c 16.4,40.9 194.2,524.6 432.1,1115.7 96.6,240 199.3,495.2 298.4,741.4 13.2,32.9 26.4,65.6 39.5,98 30.3,75.4 60.1,149.5 89.2,221.7 223.3,555.1 401.3,997.1 401.3,997.1 0,0 892.7,338.1 985.4,119 76.4,-180.7 14.2,-357.7 -225.6,-764.2"
         style="fill:#599dad;fill-opacity:1;fill-rule:nonzero;stroke:none"
         id="path198" /><path
         d="m 20487.4,5552.1 c 0,0 283.6,-182.2 256,-241.4 -3.6,-7.9 -160.3,-288.6 -160.3,-288.6 L 20380.9,4665 c 0,0 -85,50.5 -44.8,165.4 40.3,115 64.5,331.4 -38.5,472.1 -108.3,148.1 189.8,249.6 189.8,249.6"
         style="fill:#163560;fill-opacity:1;fill-rule:nonzero;stroke:none"
         id="path200" /><path
         d="m 20348.6,5231.8 c 0,0 177.3,156.3 208.5,271 0,0 -730.3,875 -888.7,1071.1 -7.2,9 -5.4,18.9 4.2,29.7 119.6,134.8 1448.3,409 1622,679.1 59.9,93.1 93.7,181.5 112.2,258.7 39.4,164.9 8.2,278.8 8.2,278.8 l -1327,38.4 c 0,0 -1104.8,-688 -1230,-1157.1 -125,-469.1 1490.6,-1469.7 1490.6,-1469.7"
         style="fill:#6bb7bf;fill-opacity:1;fill-rule:nonzero;stroke:none"
         id="path202" /><path
         d="m 19672.6,6603.6 c 119.6,134.8 1448.3,409 1622,679.1 59.9,93.1 93.7,181.5 112.2,258.7 v 168 l -564,88.7 c 0,0 -159.9,-492.2 -633.6,-676.7 -443.7,-172.9 -527.7,-479.6 -536.6,-517.8"
         style="fill:#5aa9ad;fill-opacity:1;fill-rule:nonzero;stroke:none"
         id="path204" /><path
         d="m 20451.2,10160.1 c 268.4,-69.4 713.4,179.3 713.4,179.3 0,0 -172.8,116.1 -236.8,371.2 -3.3,12.9 -6.1,26.1 -8.8,39.6 -28.1,6 -81.1,17.2 -137.9,29.2 l -205,-183.7 c 0,0 4.7,-76.3 30.3,-207.3 4.5,-22.9 9.6,-47.5 15.5,-73.6 -110.1,-68.2 -170.7,-154.7 -170.7,-154.7"
         style="fill:#e49963;fill-opacity:1;fill-rule:nonzero;stroke:none"
         id="path206" /><path
         d="m 21448.9,9047.3 c -38.5,-517.2 12.1,-1303.7 -31.5,-1439.9 -37.7,-117.6 -466.6,-47.7 -637.8,-8.5 -63.4,14.6 -140.1,35.3 -219.4,59.8 -221.2,68.5 -462.1,166.3 -488,238.9 -0.9,2.8 -1.8,5.6 -2.3,8.3 -2.4,10.6 -1.9,20.4 0.4,30.4 8.6,37 41.8,77.1 45.8,168.7 4.3,102.3 3.7,222.7 7.5,352.2 0.2,14.6 0.4,30.5 2,45 l 0.1,5.3 c 0,2.8 0.1,5.5 0.2,8.3 3.7,144.5 11.2,296.3 20,446.9 5.6,94.6 12,188.3 19.4,278 19.3,231.7 45.3,437.7 79.7,568 56.2,212.3 180.2,350.8 293,452.2 l 81.6,70 c 91,-19.8 198.7,-6.6 296.1,39.5 105.4,50 141.8,85.9 160.1,72.4 243.4,-187.8 418.5,-763.3 373.1,-1395.5"
         style="fill:#f99746;fill-opacity:1;fill-rule:nonzero;stroke:none"
         id="path208" /><path
         d="m 20560.2,7658.7 c -221.2,68.5 -462.1,166.3 -488,238.9 -0.9,2.8 -1.8,5.6 -2.3,8.3 0.1,10.2 0.2,20.3 0.4,30.4 8.6,37 41.8,77.1 45.8,168.7 4.3,102.3 3.7,222.7 7.5,352.2 0.2,14.6 0.4,30.5 2,45 l 0.1,5.3 c 0,2.8 0.1,5.5 0.2,8.3 l 893.9,1139 c 0,0 601,-1251.4 -459.6,-1996.1"
         style="fill:#ed7d2b;fill-opacity:1;fill-rule:nonzero;stroke:none"
         id="path210" /><path
         d="m 20576.1,10595.7 c 0,0 4.7,-76.3 30.3,-207.3 200.3,64.7 291.1,245.5 321.4,322.2 -3.3,12.9 -6.1,26.1 -8.8,39.6 -28.1,6 -81.1,17.2 -137.9,29.2 l -205,-183.7"
         style="fill:#d68d5d;fill-opacity:1;fill-rule:nonzero;stroke:none"
         id="path212" /><path
         d="m 20549.2,10480.1 c 0,0 436.6,72.9 387.1,344.1 -49.6,271.2 -26.6,463.3 -307.5,428.3 -280.9,-35.1 -316,-148.5 -321.5,-243 -5.5,-94.6 127,-541.3 241.9,-529.4"
         style="fill:#e49963;fill-opacity:1;fill-rule:nonzero;stroke:none"
         id="path214" /><path
         d="m 18830.4,8159.4 -38.5,-12.5 -327.7,1008.3 38.5,12.5 327.7,-1008.3"
         style="fill:#4a75cb;fill-opacity:1;fill-rule:nonzero;stroke:none"
         id="path216" /><path
         d="m 19902.7,8237.2 -1112.3,-23.8 1.5,-66.5 1112.2,23.7 -1.4,66.6"
         style="fill:#4a75cb;fill-opacity:1;fill-rule:nonzero;stroke:none"
         id="path218" /><path
         d="m 19881.9,8117.5 c 0,0 -357.4,-94.2 -491.5,-84.3 -134,9.9 -245.4,73.6 -262.3,106.9 -16.9,33.3 -52.3,92.3 39,81.4 91.2,-10.9 215.8,-30.3 219.6,-12.8 3.9,17.6 -74.4,15.9 -74.4,15.9 0,0 -23.6,34.4 6.2,35.6 29.8,1.3 116.6,24.9 148.9,8.7 32.3,-16.1 62,-75.7 85.6,-73.2 23.6,2.5 299.1,124.1 299.1,124.1 l 29.8,-202.3"
         style="fill:#e49963;fill-opacity:1;fill-rule:nonzero;stroke:none"
         id="path220" /><path
         d="m 21147.7,10011.5 c 0,0 -42.3,-1440.8 -358.7,-1604.5 -156.1,-80.8 -861.1,-302.9 -1072.8,-340.8 0,0 -56.9,36.6 -63.3,210.4 0,0 724.4,361 815,523.7 134.7,242.1 -200.8,905.7 -23.9,1138.7 177,232.9 504.4,360.9 703.7,72.5"
         style="fill:#f99746;fill-opacity:1;fill-rule:nonzero;stroke:none"
         id="path222" /><path
         d="m 20927.8,10710.6 c 0,0 5,93.1 -52.4,146.4 0,0 20,93.3 -16.9,108.7 -36.9,15.4 -44.6,-63.1 -61.5,-50.8 -17,12.4 -92.3,70.8 -124.6,156.9 -32.3,86.1 -327.9,-18.2 -362.4,-33.7 -34.4,-15.5 -145.1,41.4 -166.7,87.5 0,0 61.5,49.3 89.2,86.2 27.7,36.9 221.5,286 492.2,215.3 270.6,-70.8 307.6,-199.9 292.2,-310.7 -15.4,-110.7 21.8,-368.6 -89.1,-405.8"
         style="fill:#2b478b;fill-opacity:1;fill-rule:nonzero;stroke:none"
         id="path224" /><path
         d="m 23862.7,9514.9 c 0,0 138.6,-205.1 217.6,-636.3 69.3,-377.6 130,-517.1 230,-594.5 100,-77.4 657,-306.1 657,-306.1 l -41.6,-97.6 c 0,0 -816.5,111.2 -908.3,247.7 -91.7,136.5 -441.3,942.7 -414.2,1128.4 27.1,185.7 259.5,258.4 259.5,258.4"
         style="fill:#f4a269;fill-opacity:1;fill-rule:nonzero;stroke:none"
         id="path226" /><path
         d="m 25862.1,5010.5 c -7.3,-79.6 103.6,-99 232,-105.4 128.4,-6.4 89.6,-32.7 265.5,-64.5 176,-31.9 246.5,16.3 259.3,40 11.3,21.1 -70.5,54.1 -157.7,91.4 -11,4.7 -22,9.5 -32.9,14.3 -98.2,43.1 -153.2,131.1 -229.7,212.7 -72.5,77.3 -141.3,324.7 -141.3,324.7 l -239.1,51.1 c 0,0 67.1,-222.7 90.4,-317.8 13.7,-55.9 -6.5,-118.4 -24.5,-166 -9.6,-25.9 -19.4,-52.4 -22,-80.5"
         style="fill:#ffb27d;fill-opacity:1;fill-rule:nonzero;stroke:none"
         id="path228" /><path
         d="m 26094.1,4905.1 c 128.4,-6.4 89.6,-32.7 265.5,-64.5 176,-31.9 246.5,16.3 259.3,40 11.3,21.1 -70.5,54.1 -157.7,91.4 l -1.4,-1.5 c 0,0 -123.7,-42 -266.5,-3.2 -116.4,31.6 -229,101.2 -309.2,123.7 -9.6,-25.9 -19.4,-52.4 -22,-80.5 -7.3,-79.6 103.6,-99 232,-105.4"
         style="fill:#c65447;fill-opacity:1;fill-rule:nonzero;stroke:none"
         id="path230" /><path
         d="m 23480.9,7846.2 c 0,0 1589,119.5 1888.2,-69.3 299.1,-188.8 778.9,-2387.8 778.9,-2387.8 0,0 -29.6,-23.8 -95.8,-30.9 -61.5,-6.7 -196.9,29.5 -196.9,29.5 0,0 -689.5,983.9 -738.1,1231.8 -48.6,247.9 -36.7,469.1 -147.3,475 -110.6,5.9 -1489.2,-167.6 -1697.7,199.8 -208.5,367.3 -36.2,731 -36.2,731 l 244.9,-179.1"
         style="fill:#163560;fill-opacity:1;fill-rule:nonzero;stroke:none"
         id="path232" /><path
         d="m 25254.1,4755.3 c -7.3,-79.6 103.5,-99 231.9,-105.4 128.5,-6.4 89.6,-32.7 265.6,-64.5 176,-31.9 246.5,16.2 259.2,40 11.4,21.1 -70.4,54.1 -157.6,91.4 -11,4.6 -22,9.4 -33,14.2 -98.1,43.2 -153.1,131.2 -229.7,212.8 -72.4,77.3 -141.2,324.7 -141.2,324.7 l -239.2,51.1 c 0,0 67.2,-222.7 90.5,-317.8 13.7,-55.9 -6.5,-118.5 -24.5,-166 -9.7,-25.9 -19.4,-52.4 -22,-80.5"
         style="fill:#ffb27d;fill-opacity:1;fill-rule:nonzero;stroke:none"
         id="path234" /><path
         d="m 25486,4649.9 c 128.5,-6.4 89.6,-32.7 265.6,-64.5 176,-31.9 246.5,16.2 259.2,40 11.4,21.1 -70.4,54.1 -157.6,91.4 l -1.4,-1.5 c 0,0 -123.7,-42 -266.5,-3.2 -116.4,31.6 -229,101.2 -309.2,123.7 -9.7,-25.9 -19.4,-52.4 -22,-80.5 -7.3,-79.6 103.5,-99 231.9,-105.4"
         style="fill:#c65447;fill-opacity:1;fill-rule:nonzero;stroke:none"
         id="path236" /><path
         d="m 23169.7,7747.7 c 0,0 1411.6,-66.8 1703.1,-267.1 291.6,-200.3 685.4,-2416.4 685.4,-2416.4 0,0 -30.5,-22.6 -96.9,-27.2 -61.7,-4.2 -195.6,37.2 -195.6,37.2 0,0 -650.7,1010 -689.6,1259.6 -38.9,249.6 -18.4,470.1 -128.7,480.4 -110.3,10.2 -1494.6,-109.5 -1688.6,265.7 -194.1,375.2 410.9,667.8 410.9,667.8"
         style="fill:#1c468a;fill-opacity:1;fill-rule:nonzero;stroke:none"
         id="path238" /><path
         d="m 23672.7,10853.9 c -62.6,41.4 -140.4,50.6 -195.2,51 15,13.6 43,17 43,17 -33.5,7.3 -111.3,-21.2 -111.3,-21.2 -458.6,212.7 -578.8,-475.4 -579.6,-637.1 -0.9,-161.7 -12.1,-347.1 -256.7,-475.9 -481.3,-253.3 -124.3,-775.4 -124.3,-775.4 3.5,-2.4 320.8,-422.5 320.8,-422.5 -3.2,131 513.3,824.9 840.2,1009.7 83.7,107.2 124.1,303.7 127.1,319.2 -23.6,-156.4 -56.4,-242.8 -83.7,-290.9 281.5,226.5 185.7,1116.6 19.7,1226.1"
         style="fill:#b5453c;fill-opacity:1;fill-rule:nonzero;stroke:none"
         id="path240" /><path
         d="m 23110.4,9751.1 c 0,0 131.5,12.5 262.9,0 89.3,-8.4 177.8,-36.2 228.1,-57.2 124.4,-52 111.4,-272.3 -149.7,-231.5 -261,40.8 -359.6,223.4 -341.3,288.7"
         style="fill:#ffb27d;fill-opacity:1;fill-rule:nonzero;stroke:none"
         id="path242" /><path
         d="m 23590.4,9590.5 c 1.5,-0.8 37.2,-189.5 -133.7,-181.9 -112.2,4.9 -354.2,140.7 -332.8,236.8 10.1,45.6 94.9,164.1 112,434.6 l 20.4,-5.5 343.4,-92.1 c 0,0 -15.2,-109 -22.3,-212.2 -6,-86.6 -6.2,-169.1 13,-179.7"
         style="fill:#ffb27d;fill-opacity:1;fill-rule:nonzero;stroke:none"
         id="path244" /><path
         d="m 23599.7,9982.4 c 0,0 -15.2,-109 -22.3,-212.2 -194.4,18.5 -285.5,203 -321.1,304.3 l 343.4,-92.1"
         style="fill:#f4a269;fill-opacity:1;fill-rule:nonzero;stroke:none"
         id="path246" /><path
         d="m 23222.9,10114.8 c 0,0 -91.3,168.1 -106.6,307.6 -11,99.6 63.5,461.2 426.7,384.2 0,0 105.8,-17.6 201.4,-91.9 76,-59.1 183.2,-182.8 33.5,-492.7 l -40.5,-105.4 -514.5,-1.8"
         style="fill:#b5453c;fill-opacity:1;fill-rule:nonzero;stroke:none"
         id="path248" /><path
         d="m 23658.3,9880.4 c 0,0 -461.3,23.1 -442.5,310.1 18.8,287.1 -28.1,483.4 267.3,480.8 295.3,-2.7 345.3,-115.9 362.3,-213.3 17,-97.3 -66.6,-576.3 -187.1,-577.6"
         style="fill:#ffb27d;fill-opacity:1;fill-rule:nonzero;stroke:none"
         id="path250" /><path
         d="m 23693.4,10664.3 c 0,0 -148.6,-328.3 -345.5,-365.2 -197,-36.9 -277.5,20.6 -277.5,20.6 0,0 156.4,108.1 200.9,312 0,0 337.6,199.2 422.1,32.6"
         style="fill:#b5453c;fill-opacity:1;fill-rule:nonzero;stroke:none"
         id="path252" /><path
         d="m 23660.3,10639.1 c 0,0 89.2,-81.5 107.3,-156.1 18.1,-74.7 18.4,-225.8 62.6,-223.6 0,0 110.3,222.5 12.1,359.1 -104.1,144.9 -182,20.6 -182,20.6"
         style="fill:#b5453c;fill-opacity:1;fill-rule:nonzero;stroke:none"
         id="path254" /><path
         d="m 24119.8,7822.2 c -37.3,-44.7 -153.9,-58.4 -278.4,-78.9 -98.1,-16.2 -201,-36.5 -274.3,-79.5 -166.3,-97.6 -709.6,-427.6 -868.8,-412.5 -61.7,5.8 -50.2,123.6 -12.8,280 58.9,246.9 182.1,589.9 182.1,739 0,81.4 27.1,274 63.2,494.2 3,17.7 6,35.6 9,53.7 71.5,428.1 170.6,932.9 170.6,932.9 0,0 110.4,-241.1 325.8,-241.1 215.2,0 165.2,183.9 165.2,183.9 0,0 196.4,-23.1 242.8,-73.1 46.5,-50 164.2,-266.1 187.5,-325 0,0 4.8,-75 -180.9,-110.7 0,0 45.2,-203.6 50.6,-339.2 4,-100.3 -68.4,-414 -89.2,-609.1 -7.4,-69.1 -8.4,-123.4 2.9,-148 14.3,-31.5 60.8,-62.9 113.6,-93.7 105,-61.1 235.4,-119.9 191.1,-172.9"
         style="fill:#1c468a;fill-opacity:1;fill-rule:nonzero;stroke:none"
         id="path256" /><path
         d="m 23928.7,7995.1 c 119.2,-203.2 -323.1,-264.2 -396.4,-307.2 -166.2,-97.7 -674.8,-451.7 -834,-436.6 -61.7,5.8 -50.2,123.6 -12.8,280 58.9,246.9 182.1,589.9 182.1,739 0,81.4 27.1,274 63.2,494.2 l 191.7,184 c 0,0 205.4,-530.8 401.2,-617.8 102.6,-45.6 209.7,-75.7 288.5,-93.9 -7.4,-69.1 -8.4,-123.4 2.9,-148 14.3,-31.5 60.8,-62.9 113.6,-93.7"
         style="fill:#163560;fill-opacity:1;fill-rule:nonzero;stroke:none"
         id="path258" /><path
         d="m 24613.9,7791.9 h -444.5 v 52.6 h 444.5 v -52.6"
         style="fill:#9e332e;fill-opacity:1;fill-rule:nonzero;stroke:none"
         id="path260" /><path
         d="m 24519.5,7799.1 c 4.4,17.4 408.7,652.3 408.7,652.3 h 899.6 l -451.2,-635.2 -857.1,-17.1"
         style="fill:#9e332e;fill-opacity:1;fill-rule:nonzero;stroke:none"
         id="path262" /><path
         d="m 24557.4,7791.9 c 4.3,17.4 409.9,659.5 409.9,659.5 h 860.5 l -429.3,-659.5 h -841.1"
         style="fill:#b5453c;fill-opacity:1;fill-rule:nonzero;stroke:none"
         id="path264" /><path
         d="m 25315.9,8119.5 c -8.9,-25.7 -36.9,-46.5 -62.6,-46.5 -25.8,0 -39.4,20.8 -30.6,46.5 8.9,25.8 36.9,46.6 62.7,46.6 25.7,0 39.3,-20.8 30.5,-46.6"
         style="fill:#9e332e;fill-opacity:1;fill-rule:nonzero;stroke:none"
         id="path266" /><path
         d="m 24301.4,8070.2 c -25.3,10.8 -220.1,-24.7 -275.7,-35.1 -176.5,34.6 -756.6,150.5 -784.9,186.8 -33.3,42.9 -106,1348.5 -189.3,1370.3 0,0 -163.9,99.5 -322.4,-89.3 -158.4,-188.8 112.6,-1538.3 347.4,-1607.7 260.8,-77 1014.2,12.3 1014.2,12.3 v 0.1 c 61.9,-21.2 170.1,-33.1 227.5,-52.2 75.8,-25.3 143.2,-4.2 160.1,25.3 16.8,29.4 -147.4,176.8 -176.9,189.5"
         style="fill:#ffb27d;fill-opacity:1;fill-rule:nonzero;stroke:none"
         id="path268" /><path
         d="m 23110.4,9751.1 c 0,0 -336.6,-30.3 -434.3,-141 -97.8,-110.7 -126.4,-410.7 -126.4,-410.7 0,0 296.4,-239.3 653.5,-146.4 l -92.8,698.1"
         style="fill:#1c468a;fill-opacity:1;fill-rule:nonzero;stroke:none"
         id="path270" /><path
         d="M 30417.5,4178.1 H 1819.29 c -17.86,0 -32.47,14.6 -32.47,32.5 v 11.1 c 0,17.8 14.61,32.4 32.47,32.4 H 30417.5 c 17.9,0 32.5,-14.6 32.5,-32.4 v -11.1 c 0,-17.9 -14.6,-32.5 -32.5,-32.5"
         style="fill:#2e3552;fill-opacity:1;fill-rule:nonzero;stroke:none"
         id="path272" /><g
         id="g274"><g
           id="g276"
           clip-path="url(#clipPath280)"><path
             d="m 13443.3,10332.8 c 0,0 31.4,124.5 83.8,131.1 52.5,6.5 131.4,39.7 147.9,-2.1 16.5,-41.8 -125.3,-258.2 -181.8,-204.7 -56.5,53.4 -49.9,75.7 -49.9,75.7"
             style="fill:#ffb27d;fill-opacity:1;fill-rule:nonzero;stroke:none"
             id="path282" /><path
             d="m 12753.5,7712.9 c 45.8,-132.5 75.1,-237 74.8,-286.6 -1.2,-221.7 436.9,-1222.8 436.9,-1222.8 141.4,-59.9 303.1,0.6 303.1,0.6 -48,138.7 -314.7,1380.2 -456.3,2137.5 -59.5,318 -99.9,540.4 -99.9,540.4 l -773.8,87.4 c 0,0 356.4,-796.6 515.2,-1256.5"
             style="fill:#2c3a64;fill-opacity:1;fill-rule:nonzero;stroke:none"
             id="path284" /><path
             d="m 12238.3,8969.4 c 0,0 356.4,-796.6 515.2,-1256.5 l 358.5,628.7 c -59.5,318 -99.9,540.4 -99.9,540.4 l -773.8,87.4"
             style="fill:#2c3a64;fill-opacity:1;fill-rule:nonzero;stroke:none"
             id="path286" /><path
             d="m 12651.9,8799.5 c 0,0 212.8,-2211.9 262.3,-2640.2 0,0 -131.6,-39.7 -293.4,21.8 0,0 -294.2,1027.9 -327.5,1337.5 -33.2,309.6 -365.9,1266.8 -309.6,1355.8 56.3,89.1 668.2,-74.9 668.2,-74.9"
             style="fill:#2c3a64;fill-opacity:1;fill-rule:nonzero;stroke:none"
             id="path288" /><path
             d="m 12107.4,10685.7 c 0,0 81.8,-196.6 84.8,-255.3 3,-58.7 -183.8,-90.6 -278.5,-42.1 -94.7,48.5 -79.6,91.7 -79.6,91.7 0,0 -43.2,199.9 -36,215.9 7.2,16.1 309.3,-10.2 309.3,-10.2"
             style="fill:#ffb27d;fill-opacity:1;fill-rule:nonzero;stroke:none"
             id="path290" /><path
             d="m 13421.2,10355.7 c 0,0 -334.3,-415.7 -348.1,-469.2 -192,223.7 -487.3,504.2 -500.7,515.2 -37.8,30.7 -105.7,49.4 -174.4,60.7 -94.2,15.6 -189.9,17.4 -211.6,17.6 -3.2,0.4 -4.8,0.4 -4.7,0.2 8.8,-33.2 -27.2,-94.6 -106.5,-100.1 -94,-6.1 -226.5,44.8 -241.3,100.1 -0.7,2.7 -220.4,-11.1 -181.8,-421.3 0.4,-5.5 0.9,-11.6 2,-17.7 14.8,-137.7 58.1,-317.9 146.5,-555.1 31.7,-85.1 136.3,-717 167.4,-717.6 0,0 26.9,-13.8 86.8,-30.9 31.1,-8.9 71.9,-18.9 122,-28.2 106.5,-19.9 256.7,-37.6 458.4,-37.6 368.8,0 462.3,105 462.3,105 19.8,0 -205.1,508.3 -322.9,944.9 122.4,-71.3 252.4,-139.4 266.3,-147.8 61.7,-37.5 105,-53 135.2,-54.9 l 0.2,-0.1 c 0,0 1.5,-0.2 4.1,-0.1 17.7,-0.4 30.6,4.3 39.8,11.9 27.8,14.6 65.7,46.8 104.1,117.6 50.7,93.3 110.9,282.1 162.7,408.1 28.6,69.7 50.7,145.9 79.9,208.8 0,0 -71.3,76.3 -145.7,90.5"
             style="fill:#bc3f3f;fill-opacity:1;fill-rule:nonzero;stroke:none"
             id="path292" /><path
             d="m 12222.3,9331.9 c 73.6,-305.8 -66.5,-500.9 -167.5,-594.3 -59.9,17.1 -86.8,30.9 -86.8,30.9 -31.1,0.6 -135.7,632.5 -167.4,717.6 -88.4,237.2 -131.7,417.4 -146.5,555.1 8,9.4 12.7,14.4 12.7,14.4 0,0 446.2,-270.4 555.5,-723.7"
             style="fill:#a02e2e;fill-opacity:1;fill-rule:nonzero;stroke:none"
             id="path294" /><path
             d="m 12116.4,10663.6 c 0,0 -47.1,-106.8 -126.9,-107.8 -79.9,-0.9 -190.3,106.1 -190.3,106.1 l 317.2,1.7"
             style="fill:#e8945b;fill-opacity:1;fill-rule:nonzero;stroke:none"
             id="path296" /><path
             d="m 12122.3,10668.9 c -16.5,-16.5 -57.3,-39.3 -91.6,-54.4 -26,-11.4 -58,-12.1 -90.2,-1.9 -48.3,15.2 -121.6,39 -141.3,49.3 -46.7,24.3 -57.3,73.5 -77.6,141.9 -24.2,81 -49.4,144.6 -52.9,191.3 -4.2,55.9 22.7,87.7 119.5,96.3 177.8,15.8 265.8,-29.8 285.4,-90.8 5.2,-16.4 10.1,-32 14.6,-46.8 58.3,-190.3 61.3,-257.8 34.1,-284.9"
             style="fill:#ffb27d;fill-opacity:1;fill-rule:nonzero;stroke:none"
             id="path298" /><path
             d="m 12080.7,10978.1 c 0,0 -41.6,43.9 -93,26.7 -51.4,-17.2 -44.3,-65.1 -142.1,-57.4 -97.8,7.6 -132.9,52.9 -144,30.3 -11.2,-22.7 14.7,-156.5 14.7,-156.5 0,0 -310.1,438.9 80,438.9 0,0 395.6,24.3 321.9,-421.9 l -37.5,139.9"
             style="fill:#2c3a64;fill-opacity:1;fill-rule:nonzero;stroke:none"
             id="path300" /><path
             d="m 12900.9,10562.4 -0.4,-0.3 0.4,0.3"
             style="fill:#ffb27d;fill-opacity:1;fill-rule:nonzero;stroke:none"
             id="path302" /><path
             d="m 12943.1,11189.5 c 1.3,7.3 2.4,12.1 2.4,12.1 -1.5,-3.4 -2.3,-7.5 -2.4,-12.1"
             style="fill:#d35c2b;fill-opacity:1;fill-rule:nonzero;stroke:none"
             id="path304" /><path
             d="m 13563.8,9848.7 -63.9,9.7 179.3,1016.5 z"
             style="fill:#2c3a64;fill-opacity:1;fill-rule:nonzero;stroke:none"
             id="path306" /><path
             d="m 13474.6,10370 c 0,0 59,-58.6 68.9,-26.5 9.8,32 84.7,68.9 90.2,83.9 5.5,15 -86.1,21.6 -99.5,22 -13.4,0.3 -69.2,-58.8 -59.6,-79.4"
             style="fill:#ffb27d;fill-opacity:1;fill-rule:nonzero;stroke:none"
             id="path308" /><path
             d="m 11968.2,10392.7 c 5.1,-1.4 74.1,17.3 168,6.1 0,0 7,-85 -17.3,-91.9 -24.3,-6.9 -75.4,-1.1 -86.1,0 -10.7,1.2 -64.6,85.8 -64.6,85.8"
             style="fill:#1c468a;fill-opacity:1;fill-rule:nonzero;stroke:none"
             id="path310" /><path
             d="m 12032.8,10306.9 c 0,0 284.4,-1194.4 360,-1270.4 75.7,-76 135.1,-99.8 135.1,-99.8 0,0 59.7,72.2 58.7,106.7 -1,34.6 -467.7,1263.5 -467.7,1263.5 h -86.1"
             style="fill:#1c468a;fill-opacity:1;fill-rule:nonzero;stroke:none"
             id="path312" /><path
             d="m 12431.2,9141.3 c 0,0 193.3,-62.6 251.5,-64.9 58.2,-2.3 126.6,97.1 103.9,126.4 -6.6,8.4 -91,-30.5 -115,-17.3 -36.5,20 -83.3,4.8 -112.6,1.3 -29.3,-3.4 -141.8,59.8 -141.8,59.8 l 14,-105.3"
             style="fill:#ffb27d;fill-opacity:1;fill-rule:nonzero;stroke:none"
             id="path314" /><path
             d="m 12499,9247 c -314.3,222 -534.9,333.8 -604,366.8 19.2,164.1 10.6,425.2 -61,866.5 0,0 -304.9,-33.8 -337.5,-140.4 -47,-153.6 63.6,-581.2 155.2,-923.3 0,0 1.3,-0.8 3.5,-2.1 6.6,-11.6 16.1,-22.9 29.4,-33.6 129.7,-104.3 817.1,-304.5 817.1,-304.5 49.8,72.3 -2.7,170.6 -2.7,170.6"
             style="fill:#bc3f3f;fill-opacity:1;fill-rule:nonzero;stroke:none"
             id="path316" /><path
             d="m 12639.3,9216.4 -515.6,153.4 -16.3,-73.8 552.3,-155.5 -20.4,75.9"
             style="fill:#fcecdb;fill-opacity:1;fill-rule:nonzero;stroke:none"
             id="path318" /><path
             d="m 12900.1,9415.3 -260.8,-198.9 20.4,-75.9 300.1,204.8 -59.7,70"
             style="fill:#f4d2b8;fill-opacity:1;fill-rule:nonzero;stroke:none"
             id="path320" /><path
             d="m 12665.5,9118.7 -588.3,179.5 1.9,15.2 580.6,-172.9 5.8,-21.8"
             style="fill:#2c3a64;fill-opacity:1;fill-rule:nonzero;stroke:none"
             id="path322" /><path
             d="m 12665.5,9118.7 333.1,231.4 -13.5,13.7 -325.4,-223.3 5.8,-21.8"
             style="fill:#2c3a64;fill-opacity:1;fill-rule:nonzero;stroke:none"
             id="path324" /><path
             d="m 11968.2,10392.7 c 0,0 -134.8,140 -145.8,130.8 -11,-9.3 -24.9,-40.2 -18.4,-48.9 6.6,-8.7 180.6,-106.9 180.6,-106.9 l -16.4,25"
             style="fill:#1c468a;fill-opacity:1;fill-rule:nonzero;stroke:none"
             id="path326" /><path
             d="m 12136.2,10398.8 c 0,0 27,139.4 31.4,134.1 4.5,-5.4 48,-43.9 49.5,-53.6 1.6,-9.7 -54.2,-88.4 -80.2,-94.4 -26,-6 -0.7,13.9 -0.7,13.9"
             style="fill:#1c468a;fill-opacity:1;fill-rule:nonzero;stroke:none"
             id="path328" /></g></g></g></g></svg>
